<svg width="56" height="56" viewBox="0 0 56 56" xmlns="http://www.w3.org/2000/svg" role="img" aria-label="OpenAI">
  <rect x="2" y="2" width="52" height="52" rx="14" fill="#0f172a"/>
  <path d="M28 13c4.4 0 8 3.6 8 8 0 .7-.1 1.3-.2 2 3.1 1.6 5.2 4.8 5.2 8.5 0 5.2-4.2 9.5-9.5 9.5-1.2 0-2.3-.2-3.3-.6A8 8 0 0 1 12 36c0-3.8 2.7-7 6.2-7.8A8 8 0 0 1 28 13zm0 4.2a3.8 3.8 0 1 0 0 7.6 3.8 3.8 0 0 0 0-7.6zm-8.7 14.2a4.7 4.7 0 1 0 9.4 0 4.7 4.7 0 0 0-9.4 0zm12.5-1a4.7 4.7 0 1 0 9.4 0 4.7 4.7 0 0 0-9.4 0z" fill="#f8fafc"/>
</svg>
